<?xml version="1.0" encoding="UTF-8"?><svg id="Layer_2" xmlns="http://www.w3.org/2000/svg" viewBox="0 0 153.24 188.68"><defs><style>.cls-1,.cls-2{fill:#002500;}.cls-2{font-family:AllRoundGothic-Bold, 'All Round Gothic';font-size:107.83px;font-weight:700;}</style></defs><g id="Layer_1-2"><text class="cls-2" transform="translate(0 89.18)"><tspan x="0" y="0">F</tspan></text><text class="cls-2" transform="translate(52.52 89.18)"><tspan x="0" y="0">W</tspan></text><text class="cls-2" transform="translate(0 158.81)"><tspan x="0" y="0">B</tspan></text><path class="cls-1" d="m122.98,118.83l-.54.99-.72,1.35-17.16,32.98-.54,1.08-.18.27v-32.17c1.71-.45,3.06-1.8,3.41-3.5.09-.36.18-.81.18-1.17s0-.72-.09-1.08c-.45-1.71-1.8-3.14-3.5-3.59-.36-.09-.81-.18-1.26-.18-.36,0-.63,0-.99.09-1.8.36-3.32,1.89-3.77,3.68-.09.36-.09.72-.09,1.08s.09.81.18,1.17c.45,1.8,1.89,3.24,3.68,3.59v32.17l-.18-.36-.54-1.08-17.25-33.07-.63-1.26-.63-1.08.63-1.17.72-1.17,16.71-29.47,1.26-2.07.09-.18c.27-.54.9-.72,1.44-.36.18.09.27.18.36.36l.09.09.27.36.99,1.8,16.71,29.47.63,1.17.72,1.26Z"/><path class="cls-1" d="m103.84,155.49v2.16c0,.45-.27.81-.63.99-.18.09-.36.18-.54.18s-.27,0-.45-.09c-.36-.18-.63-.63-.63-1.08v-2.07l.45.81.63,1.35.72-1.35.45-.9Z"/><path class="cls-1" d="m146.07,153.87c0,2.7-2.16,4.85-4.85,4.85s-4.85-2.16-4.85-4.85,2.16-4.85,4.85-4.85,4.85,2.16,4.85,4.85Z"/></g></svg>